<svg xmlns="http://www.w3.org/2000/svg" viewBox="0 0 300.53 43.36"><defs><style>.cls-1,.cls-2{fill:#ffffff;}.cls-1{fill-rule:evenodd;}</style></defs><title>洁普环保智造小程序LOGO</title><g><path class="cls-1" d="M33.63,1.45H25.46a5.15,5.15,0,0,0-4.57,2.64L.18,40a1.3,1.3,0,0,0,0,1.32,1.29,1.29,0,0,0,1.14.66H57L44.85,21a5.15,5.15,0,0,0-4.57-2.64H32.12l8,13.91H15.86Z"/><path class="cls-1" d="M93.36,11.13,89.28,4.06A5.17,5.17,0,0,0,84.7,1.42H41L45,8.49a5.15,5.15,0,0,0,4.57,2.64Z"/><path class="cls-1" d="M48.13,13.71h1.69a1.3,1.3,0,0,1,1.16.66L52,16.16a1.28,1.28,0,0,0,1.14.66h40.5a5.19,5.19,0,0,1,4.58,2.64l4.08,7.07H58.58A5.15,5.15,0,0,1,54,23.89l-2.29-4-1.79-3.11Z"/><path class="cls-1" d="M57,29.12h1.7a1.3,1.3,0,0,1,1.16.66l1,1.8a1.28,1.28,0,0,0,1.14.66h40.5a5.17,5.17,0,0,1,4.58,2.64l4.08,7.07H67.48a5.15,5.15,0,0,1-4.57-2.64l-2.29-4-1.79-3.11Z"/><path class="cls-1" d="M129.89,41.94h-8.16a5.15,5.15,0,0,1-4.57-2.64L96.45,3.43a1.3,1.3,0,0,1,0-1.32,1.29,1.29,0,0,1,1.14-.66h55.64l-12.11,21a5.15,5.15,0,0,1-4.57,2.64h-8.17l8-13.91H112.12Z"/><path class="cls-1" d="M233.13,43.35h-5.64a7.63,7.63,0,0,1,0-15.26h4.85l.79,3h-5.64a4.67,4.67,0,0,0,0,9.34h4.85Z"/><path class="cls-1" d="M240.74,28.09a7.63,7.63,0,1,1-7.64,7.63,7.63,7.63,0,0,1,7.64-7.63Zm0,3a4.67,4.67,0,1,0,4.67,4.67A4.68,4.68,0,0,0,240.74,31.05Z"/><polygon class="cls-1" points="260.75 31.03 255.82 31.03 255.82 43.35 252.87 43.35 252.87 31.03 248.25 31.03 248.25 28.09 252.87 28.09 255.82 28.09 259.96 28.09 260.75 31.02 260.75 31.03"/><path class="cls-1" d="M286,43.35h-5.64a7.63,7.63,0,0,1,0-15.26h4.85l.79,3h-5.64a4.67,4.67,0,0,0,0,9.34h4.85Z"/><polygon class="cls-1" points="286.92 28.09 289.87 28.09 289.87 33.13 296.16 33.13 296.16 28.09 299.11 28.09 299.11 43.35 296.16 43.35 296.16 36.08 289.87 36.08 289.87 43.35 286.92 43.35 286.92 36.08 286.9 36.08 286.9 33.13 286.92 33.13 286.92 28.09"/><polygon class="cls-1" points="179.74 40.41 187.16 40.41 187.94 43.35 176.79 43.35 176.79 41.31 176.79 40.41 176.79 36.08 176.79 33.13 176.79 31.04 176.79 30.55 176.79 28.09 187.16 28.09 187.94 31.04 179.74 31.04 179.74 33.13 186.47 33.13 187.26 36.08 179.74 36.08 179.74 40.41"/><path class="cls-1" d="M170.7,33.13h4.87V43.35h-5.64a7.63,7.63,0,0,1,0-15.26h5.23l.8,3h-6a4.68,4.68,0,0,0,0,9.35h2.68V36.09h-1.12Z"/><path class="cls-1" d="M191.73,31v5H197c1.15,0,2.08-1.36,2.08-2.51s-.93-2.51-2.08-2.51h-5.24Zm0,8v4.33h-2.94V28.09H197c2.78,0,5,2.69,5,5.47S199.75,39,197,39Z"/><polygon class="cls-1" points="211.62 40.41 219.03 40.41 219.82 43.35 208.68 43.35 208.68 41.31 208.68 40.41 208.68 36.08 208.68 33.13 208.68 31.04 208.68 30.55 208.68 28.09 219.03 28.09 219.82 31.04 211.62 31.04 211.62 33.13 218.35 33.13 219.14 36.08 211.62 36.08 211.62 40.41"/><polygon class="cls-1" points="264.57 40.41 271.98 40.41 272.77 43.35 261.62 43.35 261.62 41.31 261.62 40.41 261.62 36.08 261.62 33.13 261.62 31.04 261.62 30.55 261.62 28.09 271.98 28.09 272.77 31.04 264.57 31.04 264.57 33.13 271.3 33.13 272.09 36.08 264.57 36.08 264.57 40.41"/><path class="cls-2" d="M161.83,21.72,165,13.11l2.81,1.12-3.16,8.58Zm1.95-15.41,3.71,3.27-2,2.09L161.9,8.31Zm.81-6.15L168,3.46l-2,2-3.34-3.41ZM178.05,0V3.13h6.52V5.66h-6.52V8.75h5.82v2.53H169.09l.67-2.53h5.3V5.66H168.3L169,3.13h6.08V0Zm-8.47,13.09h14v9.74h-3V22h-8.05v.88h-3Zm3,6.33h8.05v-3.8h-8.05Z"/><path class="cls-2" d="M188.77,4.76l2.51,3-1.86,1.27H192V4.41H186.1l.68-2.53h4.15L190.3.51l3.07-.44.88,1.81h4.06l.88-1.81,3.09.44-.63,1.37h4.85V4.41h-6V9.07h2.67L201.37,7.8l2.51-3,2.23,1.55-2.23,2.76h3.6V11.6H185.13l.67-2.53h2.95l-2.21-2.76Zm-.83,7.86h16.73V22.88h-3V22H190.93v.86h-3Zm3,3.67h10.74V15H190.93Zm0,3.34h10.74V18.36H190.93ZM195,9.07h2.5V4.41H195Z"/><path class="cls-2" d="M219.43,1.74V4.11H216.6c0,.62-.07,1.2-.14,1.74H220V8.21h-3.34l3.48,2.09-1.93,2.3-3.5-2.32A9.18,9.18,0,0,1,210,12.86l-1.51-2.53a6.09,6.09,0,0,0,4.08-2.12h-3.82l.46-2.36h4.39a11.44,11.44,0,0,0,.23-1.74h-2.07a14.35,14.35,0,0,1-1.46,1.64L208.5,3.94A10.1,10.1,0,0,0,211.07,0l2.53.75a10.33,10.33,0,0,1-.39,1Zm-8.54,11.09h17.47V22.9h-3v-.62H213.88v.62h-3Zm14.48,2.81v-.28H213.88v1.12h11.49Zm-11.49,4.15h11.49V18.68H213.88ZM230.4,1.35V12h-9.74V1.35h9.74Zm-3,2.8V3.88h-3.78V9.44h3.78V4.15Z"/><path class="cls-2" d="M240.8,1.67l2.76,5.25-2.51,1.2-.53-1-7.22.42A1.52,1.52,0,0,1,231.94,5l3.69-5,2.64,1.25-3,3.67,3.94-.21-1-2Zm1.93,6.89V20.82a1.87,1.87,0,0,1-2.21,2l-3.46-.28,0-2.27,2,.2c.51,0,.7-.16.7-.69v-.84h-4.6v3.9h-3V8.56m3,2.53v1.32h4.6V11.09m-4.6,5.29h4.6V14.94h-4.6ZM254.07,5.89l-.6,3.25a1.78,1.78,0,0,1-1.86,1.58h-5.52c-1.44,0-2.13-.81-2.13-2.27V.05h2.94V2.78A39.67,39.67,0,0,0,252.57.9l1,2.37a44.83,44.83,0,0,1-6.69,2.16V7.84a.34.34,0,0,0,.35.35h2.93c.44,0,.74-.14.81-.65l.35-2.2Zm.07,12-.6,3.22a1.71,1.71,0,0,1-1.76,1.58h-5.53c-1.34,0-2-.74-2-2.18v-9h2.95v3a42.92,42.92,0,0,0,5.31-1.83l1,2.36a43.5,43.5,0,0,1-6.33,2.12v2.66a.34.34,0,0,0,.35.35h2.73a.71.71,0,0,0,.82-.65l.3-2.18Z"/><path class="cls-2" d="M257.3,9.93V4.52h-2.62L255.21,2h7.4V4.52h-2.34V9.93h2.18v2.53h-2.18v5.36l2.18-.42.47,2.58-7.87,1.55-.46-2.59,2.71-.54V12.46h-2.41l.53-2.53Zm20.07-8.65v2.5H271.6a35.31,35.31,0,0,1-1.26,4h1.37V9.28l2.11-1.14,3.53,7.34-2.53,1.34-3.11-7.07v13h-3V11.42A37.23,37.23,0,0,1,265,17.29l-2.14-1.95A30.7,30.7,0,0,0,268.6,3.78h-5.45l.67-2.5Z"/><path class="cls-2" d="M280.28,22.9V11.32c-.56.86-1.14,1.7-1.77,2.49L277.79,10a38.48,38.48,0,0,0,4.27-10l3,.63a51.17,51.17,0,0,1-1.78,5V22.9Zm10.48-11.16V10h-5.17V1h13.32V10h-5.17v1.79h6.61v2.53h-4.48a35.32,35.32,0,0,0,4.66,6.17l-2.25,2a43.1,43.1,0,0,1-4.54-6.36v6.71h-3V16.1a36.42,36.42,0,0,1-4.52,6.36l-2.25-2a32.46,32.46,0,0,0,4.62-6.2h-4.46l.58-2.53Zm-1.94-8.17h-.24V7.43h7.34V3.57"/></g></svg>
